#!OML:ASF E:\emotionWalksFemale\Project 1\Capture day 1\Session 1\Female1.ASF
:FULLY-SPECIFIED
:DEGREES
1168
root 9.73512 15.6264 -38.5492 -9.02763 -67.5566 -345.426
lowerback 6.38797 0.369812 1.72421
upperback -0.13945 0.68411 2.17491
thorax -3.73474 0.31842 1.2144
lowerneck -0.891459 9.54858 9.0918
upperneck -4.40098 12.4492 -13.575
head 0.310264 6.21923 -5.31109
rclavicle -7.95139e-016 1.59028e-015
rhumerus -20.4656 -5.65815 -65.9946
rradius 32.9751
rwrist 19.0247
rhand -7.28218 -54.5512
rfingers 7.12502
rthumb 18.5994 -83.682
lclavicle -7.95139e-016 1.59028e-015
lhumerus -30.3268 21.4516 75.4084
lradius 37.0379
lwrist -11.187
lhand -9.65951 -37.5784
lfingers 7.12502
lthumb 16.3115 -8.24437
rfemur -12.2006 11.5058 18.9477
rtibia 28.1102
rfoot -27.0016 -42.4377
rtoes 21.5283
lfemur -15.2896 3.66129 -22.6976
ltibia 37.3119
lfoot -20.8958 9.02034
ltoes -19.2794
1169
root 9.74455 15.6348 -38.5613 -7.63289 -66.3425 -346.816
lowerback 6.21771 0.132113 2.01954
upperback -0.198182 0.389603 2.34505
thorax -3.69669 0.167414 1.25299
lowerneck -0.505954 9.79108 8.87321
upperneck -4.68523 12.7786 -13.5618
head 0.18627 6.40423 -5.28764
rclavicle -7.69297e-014 -3.81667e-014
rhumerus -20.299 -4.56672 -66.399
rradius 33.2852
rwrist 17.9603
rhand -7.65944 -54.8566
rfingers 7.12502
rthumb 18.2365 -84.0217
lclavicle -7.69297e-014 -3.81667e-014
lhumerus -31.5494 22.674 75.1975
lradius 37.4215
lwrist -11.8796
lhand -7.12916 -38.8165
lfingers 7.12502
lthumb 18.7466 -9.69987
rfemur -11.8369 11.5975 19.4024
rtibia 27.6958
rfoot -28.5528 -43.0725
rtoes 23.6219
lfemur -15.3107 4.2288 -22.5087
ltibia 37.3667
lfoot -21.6023 10.2712
ltoes -8.02047
1170
root 9.75527 15.6306 -38.5708 -6.65879 -65.1351 -347.723
lowerback 5.95788 -0.0507834 2.22068
upperback -0.227052 0.153462 2.41902
thorax -3.57855 0.0473071 1.23791
lowerneck -0.359636 9.96016 8.86923
upperneck -4.76627 13.0114 -13.5939
head 0.166659 6.52753 -5.29567
rclavicle -5.96354e-015 -1.59028e-015
rhumerus -20.1775 -3.91045 -66.7361
rradius 33.5558
rwrist 17.3544
rhand -6.07373 -53.7703
rfingers 7.12502
rthumb 19.7615 -82.7857
lclavicle -5.96354e-015 -1.59028e-015
lhumerus -31.8474 23.703 75.0237
lradius 36.8853
lwrist -12.3277
lhand -7.3341 -38.6267
lfingers 7.12502
lthumb 18.5495 -9.49109
rfemur -11.607 11.9582 19.6252
rtibia 27.2681
rfoot -28.8807 -44.398
rtoes 23.3426
lfemur -15.4147 4.86443 -22.5085
ltibia 37.4225
lfoot -21.9706 12.4077
ltoes -5.28112
1171
root 9.76728 15.6309 -38.5858 -6.12131 -64.0548 -348.295
lowerback 5.9263 -0.104638 2.27289
upperback -0.212934 0.0835831 2.405
thorax -3.54571 0.0119084 1.20013
lowerneck -0.375461 10.0844 8.93848
upperneck -4.81272 13.1768 -13.5841
head 0.177795 6.60948 -5.29542
rclavicle 3.77691e-015 4.45278e-014
rhumerus -20.1171 -3.97974 -67.0272
rradius 33.7864
rwrist 17.2888
rhand -5.15331 -52.9766
rfingers 7.12502
rthumb 20.6461 -81.8985
lclavicle 3.77691e-015 4.45278e-014
lhumerus -32.0259 23.8202 74.8723
lradius 36.4401
lwrist -12.1049
lhand -7.26803 -38.1556
lfingers 7.12502
lthumb 18.613 -9.02605
rfemur -11.3805 10.8487 19.7162
rtibia 26.8487
rfoot -27.1969 -44.8521
rtoes 21.3656
lfemur -15.3198 5.58844 -22.5996
ltibia 37.4569
lfoot -22.3995 14.5046
ltoes -3.65802
1172
root 9.78133 15.6306 -38.6019 -5.70082 -63.095 -348.915
lowerback 6.18511 -0.0044508 2.37464
upperback -0.246755 0.233344 2.29306
thorax -3.72609 0.0828167 1.01463
lowerneck -0.302264 10.0786 9.41445
upperneck -4.78594 13.1833 -13.6654
head 0.212229 6.60993 -5.39311
rclavicle -2.56432e-014 7.95139e-015
rhumerus -20.4506 -4.14222 -67.351
rradius 34.1321
rwrist 16.8443
rhand -5.84582 -53.3552
rfingers 7.12502
rthumb 19.9806 -82.3479
lclavicle -2.56432e-014 7.95139e-015
lhumerus -32.4774 24.0717 74.7373
lradius 36.3068
lwrist -12.4574
lhand -7.17973 -37.8939
lfingers 7.12502
lthumb 18.698 -8.7725
rfemur -10.9211 10.6404 19.9479
rtibia 26.4758
rfoot -30.2508 -44.5518
rtoes 26.5973
lfemur -15.0652 6.32875 -22.5683
ltibia 37.4565
lfoot -23.2859 15.7309
ltoes 5.60064
1173
root 9.79629 15.6274 -38.6139 -5.02848 -62.0866 -349.687
lowerback 6.35216 0.136254 2.61712
upperback -0.378221 0.445855 2.11612
thorax -3.95338 0.180502 0.675966
lowerneck -0.189456 9.99955 10.2061
upperneck -4.69018 13.1041 -13.7957
head 0.274848 6.56465 -5.55715
rclavicle 7.95139e-016 -1.11319e-014
rhumerus -21.0032 -4.34981 -67.7948
rradius 34.4979
rwrist 16.2108
rhand -6.47163 -53.9391
rfingers 7.12502
rthumb 19.3789 -82.9935
lclavicle 7.95139e-016 -1.11319e-014
lhumerus -32.7258 23.8991 74.5159
lradius 35.9538
lwrist -12.6847
lhand -6.66834 -37.8179
lfingers 7.12502
lthumb 19.1898 -8.74461
rfemur -10.5971 10.8312 20.2546
rtibia 26.1948
rfoot -30.4233 -45.3637
rtoes 26.4885
lfemur -14.9303 7.20324 -22.5351
ltibia 37.444
lfoot -23.6426 17.377
ltoes 9.30481
1174
root 9.80909 15.6252 -38.6231 -4.42391 -61.0559 -350.285
lowerback 6.3192 0.146844 2.67459
upperback -0.448043 0.465202 2.0936
thorax -4.00658 0.188226 0.618806
lowerneck -0.168928 10.0362 10.5892
upperneck -4.71992 13.1571 -13.9598
head 0.307097 6.58875 -5.6621
rclavicle -1.96797e-014 6.36111e-015
rhumerus -21.1741 -4.41025 -68.1482
rradius 34.8105
rwrist 16.1058
rhand -6.26683 -54.0305
rfingers 7.12502
rthumb 19.5758 -83.065
lclavicle -1.96797e-014 6.36111e-015
lhumerus -32.9085 23.8692 74.3167
lradius 35.4264
lwrist -12.6112
lhand -6.18144 -37.8922
lfingers 7.12502
lthumb 19.6579 -8.86616
rfemur -10.4096 11.0185 20.4817
rtibia 26.0012
rfoot -32.7462 -45.5177
rtoes 29.3001
lfemur -14.8702 7.76882 -22.5429
ltibia 37.4039
lfoot -24.4086 18.6728
ltoes 14.9577
1175
root 9.82317 15.6217 -38.6346 -3.91841 -59.9966 -350.737
lowerback 6.30195 0.109297 2.57033
upperback -0.520208 0.412237 2.17528
thorax -4.07361 0.164236 0.767213
lowerneck -0.273878 10.141 10.6305
upperneck -4.65894 13.296 -14.0384
head 0.367589 6.6541 -5.67543
rclavicle -7.93151e-014 1.43125e-014
rhumerus -21.246 -4.25507 -68.3138
rradius 35.0809
rwrist 16.0464
rhand -6.14239 -53.6575
rfingers 7.12502
rthumb 19.6955 -82.6797
lclavicle -7.93151e-014 1.43125e-014
lhumerus -32.9424 24.2973 74.2211
lradius 34.7285
lwrist -12.8584
lhand -5.85954 -38.1335
lfingers 7.12502
lthumb 19.9674 -9.13938
rfemur -10.3104 11.1529 20.6457
rtibia 25.8674
rfoot -35.4616 -45.5092
rtoes 32.5681
lfemur -14.8713 8.43822 -22.6415
ltibia 37.4192
lfoot -24.9301 20.0555
ltoes 18.0325
1176
root 9.83841 15.6137 -38.6449 -3.41209 -58.967 -351.224
lowerback 6.28821 0.114108 2.5735
upperback -0.582854 0.421983 2.20804
thorax -4.13119 0.168744 0.798653
lowerneck -0.435115 10.1935 10.6362
upperneck -4.46521 13.3716 -13.9978
head 0.456493 6.68421 -5.64417
rclavicle -3.47873e-014 -2.8625e-014
rhumerus -21.3753 -4.12264 -68.4929
rradius 35.2551
rwrist 15.7984
rhand -6.13123 -52.9715
rfingers 7.12502
rthumb 19.7062 -81.9927
lclavicle -3.47873e-014 -2.8625e-014
lhumerus -33.3756 24.7709 74.1191
lradius 34.5753
lwrist -13.3756
lhand -5.20038 -38.2733
lfingers 7.12502
lthumb 20.6009 -9.3465
rfemur -10.187 11.5807 20.8538
rtibia 25.7502
rfoot -37.8647 -45.8798
rtoes 35.0802
lfemur -14.9016 8.93668 -22.6365
ltibia 37.4029
lfoot -25.7028 21.2318
ltoes 20.0558
1177
root 9.85105 15.6016 -38.6516 -2.86899 -58.0591 -351.76
lowerback 6.2227 0.115955 2.61839
upperback -0.659742 0.430325 2.28
thorax -4.17449 0.171883 0.847585
lowerneck -0.31483 10.1939 10.4211
upperneck -4.53225 13.376 -13.8726
head 0.393642 6.69359 -5.58413
rclavicle -6.79844e-014 -4.77083e-015
rhumerus -21.5113 -3.78975 -68.6713
rradius 35.4464
rwrist 15.6028
rhand -5.81116 -52.6946
rfingers 7.12502
rthumb 20.0139 -81.6839
lclavicle -6.79844e-014 -4.77083e-015
lhumerus -33.7848 25.2613 73.9232
lradius 34.2686
lwrist -13.8172
lhand -4.9195 -37.9757
lfingers 7.12502
lthumb 20.8708 -9.07836
rfemur -10.0261 12.4581 21.13
rtibia 25.6149
rfoot -41.1716 -46.0504
rtoes 38.1964
lfemur -14.854 9.80419 -22.6277
ltibia 37.4384
lfoot -26.5239 22.2092
ltoes 19.8139
1178
root 9.87264 15.595 -38.6546 -2.24084 -57.0165 -352.329
lowerback 6.24924 0.0370561 2.80567
upperback -0.801307 0.348072 2.34511
thorax -4.33675 0.125336 0.818901
lowerneck 0.00254415 10.2055 10.1889
upperneck -4.89522 13.3842 -13.7975
head 0.215849 6.71512 -5.55771
rclavicle 1.17084e-013 -2.8625e-014
rhumerus -21.6248 -3.49398 -68.8686
rradius 35.6095
rwrist 15.6309
rhand -5.50217 -52.7853
rfingers 7.12502
rthumb 20.3109 -81.7433
lclavicle 1.17084e-013 -2.8625e-014
lhumerus -34.2038 25.9389 73.588
lradius 33.8027
lwrist -14.2668
lhand -4.69139 -38.2416
lfingers 7.12502
lthumb 21.0899 -9.36857
rfemur -9.8919 13.2238 21.3656
rtibia 25.4863
rfoot -44.0057 -45.8779
rtoes 40.732
lfemur -15.0312 10.0578 -22.549
ltibia 37.4163
lfoot -27.3849 22.6511
ltoes 23.0121
1179
root 9.89108 15.5937 -38.6602 -1.47808 -55.9942 -352.926
lowerback 6.05989 0.00578867 2.9483
upperback -0.900148 0.313606 2.38569
thorax -4.33257 0.10475 0.784739
lowerneck 0.164095 10.2469 10.2291
upperneck -5.24538 13.4227 -13.8718
head 0.100805 6.74366 -5.605
rclavicle -5.66536e-014 -3.18055e-015
rhumerus -21.6569 -3.68871 -69.1224
rradius 35.6824
rwrist 15.9086
rhand -5.24696 -52.6452
rfingers 7.12502
rthumb 20.5561 -81.5769
lclavicle -5.66536e-014 -3.18055e-015
lhumerus -34.4042 26.6848 73.2561
lradius 33.2984
lwrist -14.9518
lhand -3.22324 -40.2765
lfingers 7.12502
lthumb 22.4997 -11.5673
rfemur -9.98208 12.5362 21.4959
rtibia 25.409
rfoot -45.8107 -44.1849
rtoes 43.4626
lfemur -15.278 10.311 -22.4781
ltibia 37.3875
lfoot -27.8752 22.8587
ltoes 26.101
1180
root 9.90579 15.5903 -38.6614 -0.7692 -55.0151 -353.481
lowerback 5.7701 0.00232116 3.06587
upperback -0.944942 0.306416 2.41802
thorax -4.2152 0.0994746 0.752866
lowerneck 0.103324 10.2841 10.2822
upperneck -5.37762 13.457 -13.9159
head 0.0833806 6.75958 -5.62506
rclavicle 5.40694e-014 2.38542e-014
rhumerus -21.7116 -3.63545 -69.4798
rradius 35.7939
rwrist 15.4253
rhand -5.71176 -52.5264
rfingers 7.12502
rthumb 20.1094 -81.5057
lclavicle 5.40694e-014 2.38542e-014
lhumerus -34.6967 27.0864 73.0297
lradius 33.0735
lwrist -15.5791
lhand -1.87157 -41.0642
lfingers 7.12502
lthumb 23.7966 -12.5179
rfemur -10.2096 12.1372 21.7779
rtibia 25.3078
rfoot -45.3981 -45.7536
rtoes 42.0279
lfemur -15.4532 10.5077 -22.4178
ltibia 37.2735
lfoot -28.1756 23.5825
ltoes 26.475
1181
root 9.92389 15.5795 -38.6587 -0.0840852 -53.9705 -353.975
lowerback 5.34617 -0.0274239 3.23945
upperback -0.939002 0.257656 2.43413
thorax -3.9695 0.0737433 0.675956
lowerneck -0.0705739 10.2859 10.3228
upperneck -5.40688 13.4421 -13.9844
head 0.109611 6.74663 -5.64282
rclavicle 7.4743e-014 3.18055e-014
rhumerus -21.675 -3.31762 -69.8777
rradius 35.8711
rwrist 14.6946
rhand -6.58909 -52.5889
rfingers 7.12502
rthumb 19.266 -81.6546
lclavicle 7.4743e-014 3.18055e-014
lhumerus -34.9145 27.4331 72.8256
lradius 32.8488
lwrist -16.079
lhand -1.3844 -38.8225
lfingers 7.12502
lthumb 24.2637 -10.3378
rfemur -10.3528 12.445 21.9851
rtibia 25.2039
rfoot -47.8914 -45.7226
rtoes 43.8455
lfemur -15.7031 10.4049 -22.4032
ltibia 37.168
lfoot -28.8136 24.6968
ltoes 24.3527
1182
root 9.94423 15.5748 -38.6579 0.349294 -52.926 -354.422
lowerback 4.90046 -8.19119e-005 3.3203
upperback -0.702591 0.267334 2.47365
thorax -3.47257 0.0836179 0.668767
lowerneck -0.30067 10.2442 10.469
upperneck -5.53175 13.3536 -14.2153
head 0.128476 6.69621 -5.72842
rclavicle 1.88845e-014 2.70347e-014
rhumerus -21.3633 -3.55616 -70.0324
rradius 35.8537
rwrist 15.0764
rhand -6.04494 -52.4406
rfingers 7.12502
rthumb 19.7892 -81.4532
lclavicle 1.88845e-014 2.70347e-014
lhumerus -34.2716 28.2747 72.7323
lradius 31.92
lwrist -16.9324
lhand -0.102544 -37.2985
lfingers 7.12502
lthumb 25.4921 -8.98365
rfemur -10.2369 12.6222 22.1847
rtibia 25.147
rfoot -50.581 -44.8532
rtoes 45.8355
lfemur -15.7207 10.3463 -22.3765
ltibia 37.025
lfoot -28.4503 24.6492
ltoes 27.5319
